<svg xmlns="http://www.w3.org/2000/svg" viewBox="0 0 100 100"><rect width="100" height="100" rx="25" fill="#fff"/><g transform="matrix(.22189 0 0 .22186 3.327 3.318)"><path d="m192.77 389.89c-55.23-5.327-106.21-37.19-135.86-84.927-50.855-81.86-27.352-190.11 53-244.11 64.927-43.632 150.19-40.56 211.55 7.623 24.394 19.16 44.19 45.38 55.873 74.02 23.23 56.931 15.654 121.9-20.11 172.5-8.645 12.232-29.994 33.582-42.23 42.23-35.463 25.06-79.37 36.795-122.23 32.661m-64.08-42.14c1.121-1.238 3.246-4.35 4.72-6.917l2.681-4.667-9.778-7.333c-5.378-4.03-10.319-7.676-10.979-8.096-1.729-1.097-12.133 10.267-12.299 13.436-.17 3.235 16.561 15.827 21.03 15.827 1.422 0 3.504-1.012 4.625-2.25zm15.246-25.733c2.785-4.94 5.064-9.401 5.064-9.912 0-.779-10.09-8.597-14.776-11.451-1.606-.977-3.938.984-11.46 9.638l-5.03 5.792 2.385 2.547c2.57 2.745 16.502 12.369 17.905 12.369.469 0 3.131-4.04 5.916-8.983m13.796-24.291l5.232-9.227-4.232-3.754c-6.627-5.879-6.958-5.826-14.521 2.344-3.691 3.987-6.711 7.954-6.711 8.816 0 1.662 11.784 11.11 13.808 11.07.656-.013 3.547-4.175 6.425-9.25m11.131-20.14c3.85-6.822 4.718-10.183 3.126-12.1-2.327-2.804-5.415-1.625-11.288 4.309l-5.736 5.796 2.767 2.57c2.73 2.535 6.146 4.748 7.422 4.807.36.017 2.029-2.405 3.709-5.382m88.39-120.41c3.616-2.385 9.75-9.596 9.75-11.464 0-1.734-6.2-6.71-8.36-6.71-1.737 0-7.364 9.369-8.231 13.706-.41 2.052-.08 3.479 1.07 4.63 2.075 2.075 2.391 2.066 5.771-.163m21.581-22.567c3.943-4.066 7.169-8.06 7.169-8.88 0-1.404-7.983-8.06-12.645-10.542-2.588-1.378-2.562-1.407-8.273 9.07-2.325 4.265-4.082 8.394-3.904 9.177.295 1.3 8.547 8.397 9.903 8.518.32.028 3.807-3.276 7.75-7.342m19.09-20.294c3.896-4.228 7.083-8.08 7.083-8.556 0-2.602-19.455-16.709-20.951-15.192-1.325 1.343-10.05 17.289-10.05 18.367 0 .899 14.895 12.881 16.17 13 .367.036 3.854-3.395 7.75-7.623m16.447-18.27c2.55-2.726 4.637-5.65 4.637-6.497 0-3.961-16.6-17.546-21.44-17.546-2.6 0-5.346 2.813-8.665 8.875l-2.395 4.375 2.452 1.625c1.349.894 6.074 4.424 10.5 7.846 4.426 3.422 8.549 6.234 9.161 6.25.612.016 3.2-2.202 5.75-4.929" fill="#9f9fa0"/><path d="m183.53 387.47c-42.925-6.951-82.47-28.952-109.13-60.721-41.452-49.39-53.892-114.68-33.25-174.54 18.15-52.647 59.49-93.78 111.82-111.28 83.85-28.03 174.06 7.931 215.89 86.07 9.08 16.966 16.692 41.28 19.18 61.3 1.784 14.338.727 44.34-2.02 57.2-7.777 36.448-24.502 67.01-50.682 92.6-25.45 24.879-54.37 40.31-89.84 47.942-13.217 2.843-48.25 3.651-61.974 1.429m-53.32-34.22c3.639-4.21 8.906-14.678 8.4-16.696-.381-1.519.088-2.384 1.669-3.083 1.243-.549 4.485-5.03 7.456-10.301 4.162-7.385 5.05-9.716 4.264-11.184-1.238-2.312-1.269-3.275-.083-2.542 2.1 1.298 4.346-1.17 9.145-10.05 3.046-5.633 4.856-10.1 4.52-11.164-.379-1.193.157-2.087 1.649-2.751 2.564-1.142 9.359-12.475 10.334-17.234.366-1.788 1.172-3.25 1.791-3.25.619 0-1.198-1.565-4.04-3.477-2.84-1.913-5.457-3.952-5.815-4.531-.372-.602-4.323 2.577-9.208 7.407-6.664 6.589-8.437 8.919-8.02 10.531.433 1.657.076 2.07-1.791 2.07-1.668 0-4.496 2.432-9.924 8.533-6.572 7.386-7.448 8.802-6.522 10.532.962 1.797.822 1.937-1.383 1.384-2.088-.524-3.587.55-10.07 7.218-6.341 6.52-7.56 8.297-7.27 10.597.294 2.338.052 2.669-1.575 2.153-2.23-.708-5.753 2.338-11.874 10.268-3.413 4.421-3.838 5.49-2.889 7.263 2.535 4.736 23.999 20.05 28.1 20.05.89 0 2.299-.788 3.131-1.75m132.96-196.29c6.508-6.508 7.931-8.466 7.474-10.287-.479-1.907-.168-2.243 2.049-2.212 3.643.051 17.456-15.216 16.629-18.38-.424-1.62-.188-1.973 1.01-1.515 2.16.829 3.298-.033 11.07-8.389 5.519-5.93 6.722-7.796 6.334-9.827-.418-2.187-.192-2.435 1.772-1.942 1.765.443 3.212-.463 6.705-4.197 6.938-7.417 8.28-9.855 6.988-12.69-2.39-5.246-24.479-20.886-28.67-20.299-1.22.171-3.638 2.958-6.311 7.277-3.428 5.537-4.232 7.667-3.845 10.191.335 2.186.118 3.055-.689 2.761-2.026-.741-3.225.765-8.653 10.873-3.912 7.283-4.985 10.115-4.15 10.95 1.744 1.744 1.342 2.724-1.124 2.743-3.084.023-13.1 17.756-12.151 21.521.507 2.02.248 2.462-1.451 2.462-1.63 0-3.185 2.245-7.331 10.586-4.884 9.825-5.131 10.659-3.433 11.609 1.01.563 3.244 2.311 4.972 3.885 1.729 1.574 3.508 2.875 3.954 2.891.446.016 4.428-3.588 8.849-8.01" fill="#dec524"/><path d="m183.53 387.47c-42.925-6.951-82.47-28.952-109.13-60.721-41.452-49.39-53.892-114.68-33.25-174.54 18.15-52.647 59.49-93.78 111.82-111.28 83.85-28.03 174.06 7.931 215.89 86.07 9.08 16.966 16.692 41.28 19.18 61.3 1.784 14.338.727 44.34-2.02 57.2-7.777 36.448-24.502 67.01-50.682 92.6-25.45 24.879-54.37 40.31-89.84 47.942-13.217 2.843-48.25 3.651-61.974 1.429m-53.32-34.22c3.639-4.21 8.906-14.678 8.4-16.696-.381-1.519.088-2.384 1.669-3.083 1.243-.549 4.485-5.03 7.456-10.301 4.162-7.385 5.05-9.716 4.264-11.184-1.238-2.312-1.269-3.275-.083-2.542 2.1 1.298 4.346-1.17 9.145-10.05 3.046-5.633 4.856-10.1 4.52-11.164-.379-1.193.157-2.087 1.649-2.751 2.588-1.153 9.363-12.494 10.351-17.326.789-3.863.752-3.864 12.426.401 9.802 3.582 24.19 4.416 34.5 2 24.07-5.643 42.739-25.282 47.11-49.56 3.167-17.606-1.379-35.678-12.52-49.772-2.247-2.843-4.086-5.38-4.086-5.637 0-.258 3.644-4.113 8.099-8.568 6.56-6.56 7.992-8.526 7.534-10.347-.479-1.907-.168-2.243 2.049-2.212 3.643.051 17.456-15.216 16.629-18.38-.424-1.62-.188-1.973 1.01-1.515 2.16.829 3.298-.033 11.07-8.389 5.519-5.93 6.722-7.796 6.334-9.827-.418-2.187-.192-2.435 1.772-1.942 1.765.443 3.212-.463 6.705-4.197 6.938-7.417 8.28-9.855 6.988-12.69-2.39-5.246-24.479-20.886-28.67-20.299-1.22.171-3.638 2.958-6.311 7.277-3.428 5.537-4.232 7.667-3.845 10.191.335 2.186.118 3.055-.689 2.761-2.026-.741-3.225.765-8.653 10.873-3.912 7.283-4.985 10.115-4.15 10.95 1.744 1.744 1.342 2.724-1.124 2.743-3.084.023-13.1 17.756-12.151 21.521.507 2.02.247 2.462-1.439 2.462-1.608 0-3.179 2.238-7.197 10.25-5.092 10.155-6.296 11.27-9.463 8.771-.55-.434-4.375-2-8.5-3.488-28.662-10.313-61.42 2.944-75.5 30.553-4.684 9.184-6.498 17.06-6.498 28.19 0 15.699 4.342 27.695 14.569 40.25 2.437 2.992 4.431 5.635 4.431 5.873 0 .238-3.662 4.03-8.138 8.431-6.352 6.242-8.02 8.455-7.594 10.08.437 1.671.084 2.083-1.787 2.083-1.668 0-4.496 2.432-9.924 8.533-6.572 7.386-7.448 8.802-6.522 10.532.962 1.797.822 1.937-1.383 1.384-2.088-.524-3.587.55-10.07 7.218-6.341 6.52-7.56 8.297-7.27 10.597.294 2.338.052 2.669-1.575 2.153-2.23-.708-5.753 2.338-11.874 10.268-3.413 4.421-3.838 5.49-2.889 7.263 2.535 4.737 23.999 20.05 28.1 20.05.89 0 2.299-.788 3.131-1.75m67.797-96.68c-14.311-3.989-26.634-14.953-31.943-28.422-10.634-26.978 4.639-57.36 32.478-64.61 16.558-4.313 33.664.463 46.01 12.846 7.349 7.37 11.939 16.243 13.641 26.371 3.809 22.66-10.425 45.66-32.907 53.17-7.158 2.392-19.93 2.694-27.28.645m31.29-5.308c8-3.759 17.25-12.156 21.02-19.08 16.552-30.412-5.299-67.17-39.93-67.17-22.13 0-40.699 15.965-44.44 38.21-2.839 16.873 5.469 35.421 20.06 44.784 8.326 5.343 15.03 7.04 26.504 6.727 8.834-.245 10.792-.649 16.788-3.466m-23.833-35.713c-6.99-6.99 2.567-17.732 10.05-11.296 3.845 3.307 3.89 8.155.107 11.409-3.504 3.01-7.07 2.974-10.156-.113" fill="#565557"/><path d="m195 387.98c-46.13-4.088-91.19-27.26-119.99-61.699-38.848-46.45-52.05-105.56-36.48-163.27 16.996-62.982 68.51-112.04 132.8-126.46 31.498-7.06 65.41-5.343 96.17 4.883 11.03 3.667 30.57 13.216 40.623 19.852 67.39 44.493 96.8 129.06 71.4 205.3-8.722 26.17-21.712 47.4-41.459 67.759-32.551 33.551-74.14 52.09-121.06 53.968-6.875.275-16.775.122-22-.341m-63.31-33.23c3.291-3.638 9.313-14.671 9.313-17.06 0-1.213.845-2.734 1.877-3.378 2.433-1.52 12.339-19.302 11.692-20.988-.272-.709.357-1.746 1.399-2.303 2.203-1.179 12.03-18.866 12.03-21.65 0-1.037.84-2.41 1.867-3.052 2.045-1.277 8.72-12.822 9.722-16.814.777-3.096 1.038-3.094 9.79.089 9.41 3.422 23.09 4.247 33.621 2.029 23.489-4.949 42.467-22.978 48.546-46.12 2.058-7.836 2.047-23.24-.024-31-2.182-8.184-6.891-18.02-11.06-23.11-1.904-2.324-3.462-4.488-3.462-4.81 0-.322 3.383-3.798 7.517-7.725 4.134-3.927 7.783-8.201 8.108-9.497.325-1.296 1.179-2.357 1.896-2.357 1.935 0 16.478-16.03 16.478-18.17 0-1.01.715-1.834 1.591-1.834 2.432 0 17.341-16.09 17.378-18.75.021-1.513.638-2.25 1.886-2.25 1.934 0 10.923-8.847 13.08-12.87.682-1.274.978-3.36.658-4.634-.688-2.74-10.113-10.869-20.499-17.679-9.01-5.907-11.499-6.661-14.13-4.279-2.985 2.701-8.958 13.954-8.958 16.875 0 1.59-.557 2.588-1.446 2.588-1.873 0-12.776 20.26-11.996 22.291.363.945-.109 1.757-1.236 2.128-2.049.674-12.322 18.595-12.322 21.495 0 1.03-.635 2.116-1.411 2.414-1.161.446-9.275 15.231-10.693 19.486-.279.838-2.516.313-7.398-1.736-34.06-14.294-73.58 4.086-84.78 39.42-1.782 5.625-2.216 9.357-2.208 19 .009 10.514.357 13.01 2.813 20.19 2.545 7.439 7.133 15.517 12.717 22.388l2.097 2.58-7.599 7.369c-4.18 4.053-7.859 8.404-8.177 9.67-.318 1.266-1.165 2.301-1.882 2.301-1.935 0-16.478 16.03-16.478 18.17 0 1.01-.686 1.834-1.525 1.834-2.079 0-17.411 16.06-17.447 18.275-.016.976-1.068 2.17-2.34 2.654-2.588.984-12.381 11.303-13.909 14.655-.742 1.627-.56 2.822.726 4.785 3.346 5.106 27 21.632 30.969 21.632.647 0 2.093-1.012 3.212-2.25m74.54-139.31c-4.765-3.337-1.601-12.443 4.323-12.443 2.992 0 7.455 4.083 7.455 6.82 0 1.051-.933 3.096-2.073 4.545-2.385 3.03-6.295 3.466-9.705 1.078" fill="#3e3e41"/><path d="m190 387.35c-52.49-6.818-99.03-35.38-127.65-78.35-19.74-29.63-29.476-62.09-29.492-98.33-.022-50.06 18.03-92.94 53.789-127.77 36.77-35.816 84.973-53.39 136.6-49.803 52.894 3.675 100.84 30.638 132.31 74.4 8.151 11.336 19.393 33.758 23.9 47.666 6.511 20.09 8.03 30.556 8.03 55.33 0 18.948-.317 23.573-2.286 33.33-14.556 72.15-69.08 126.84-140.82 141.23-8.547 1.714-15.16 2.241-30.879 2.461-11 .154-21.575.075-23.5-.175m7.228-16.443c1.187-1.594 2.148-4.953 2.487-8.697.636-7.02 1.976-6.138-13.215-8.684-18.782-3.148-44.5-12.755-44.5-16.624 0-1.577 2.934-.766 14.09 3.897 11.12 4.644 27.32 8.951 37.1 9.859l6.81.633v-11.644c0-6.404-.175-11.644-.39-11.644-2.02 0-18.15-3.532-23.411-5.127-8.945-2.712-19.951-7.781-20.607-9.493-.836-2.179 1.939-1.668 11.315 2.083 9.871 3.949 23.8 7.52 29.376 7.53l3.783.007-.283-11.25-.283-11.25-6.909-1.674c-9.392-2.276-21.22-6.673-22.679-8.432-2.217-2.672.176-2.869 6.401-.528 8.918 3.354 20.706 6.34 22.426 5.68 1.169-.449 1.4-2.114 1.105-7.968-.457-9.04-1.446-10.321-10.857-14.01-6.563-2.575-8.807-4.078-7.717-5.168.259-.259 3.87.671 8.03 2.067 6.271 2.105 9.432 2.537 18.581 2.537 14.12 0 19.503-1.151 30.849-6.595 19.933-9.563 33.17-29.21 34.908-51.803 1.107-14.396-3.709-31.898-11.668-42.41-3.756-4.959-4.31-7.196-1.782-7.196.587 0 3.619 2.775 6.738 6.167 6.272 6.819 7.833 7.281 16.446 4.87 3.564-.998 4.631-1.765 4.631-3.329 0-2.554-4.03-9.547-9.662-16.77-2.386-3.059-4.338-6.097-4.338-6.75 0-4.456 7.826 3.965 15.391 16.562 2.278 3.793 4.413 6.23 5.431 6.2.923-.028 5.503-1.501 10.178-3.274 6.823-2.588 8.563-3.664 8.82-5.455.525-3.658-7.672-17.03-17.5-28.54-4.822-5.65-5.191-6.68-2.39-6.68 2.56 0 13.476 13.694 19.565 24.542 2.585 4.607 5.251 8.832 5.923 9.39.855.71 4.054.005 10.652-2.346 7.31-2.605 9.499-3.816 9.738-5.386.682-4.483-12-25.481-22.711-37.598-3.353-3.794-6.097-7.507-6.097-8.25 0-7.05 18.373 15.341 29.462 35.898 3.134 5.809 5.301 8.75 6.45 8.75.951 0 4.173-1.238 7.159-2.75 7.896-4 8.431-6.353 3.585-15.768-4.808-9.34-14.04-21.777-23.615-31.82-6.517-6.834-7.439-8.254-7.196-11.08.245-2.842-.513-3.98-6.174-9.276-6.731-6.297-21.451-16.554-25.539-17.798-1.352-.411-3.326-.208-4.599.473-1.917 1.026-3.252.679-9.51-2.472-13.951-7.03-39.991-14.511-50.48-14.511-6.95 0-10.368 4.944-9.374 13.556.328 2.842.448 2.891 11.332 4.659 13.324 2.165 30.356 7.436 40.47 12.526 11.988 6.03 10.323 8.904-1.834 3.161-10.509-4.965-25.934-9.728-37.562-11.599-13.548-2.179-13.575-2.157-13.575 11.41 0 10.727-.404 10.277 11 12.279 13.178 2.314 34.14 10.01 36.16 13.264 1.641 2.655-1.787 2.323-8.624-.836-9.537-4.406-23.422-8.401-31.69-9.118l-6.656-.577-.672 6.387c-.369 3.513-.524 8.595-.344 11.293l.327 4.906 11 2.742c10.981 2.737 21.736 6.902 22.967 8.894 1.686 2.728-1.082 2.702-7.596-.069-9.109-3.876-21.702-7.111-24.756-6.359-2.268.559-2.357.884-1.831 6.687.76 8.386 2.653 10.538 12.727 14.473 9.113 3.559 11.346 5.126 10.123 7.105-.618.999-1.993.727-6.214-1.23-8.08-3.745-15.03-4.843-27.394-4.331-13.09.542-22.08 3.298-32.13 9.845-13.05 8.504-23.949 23.937-27.49 38.932-3.997 16.927.734 39.33 11.262 53.35 2.108 2.805 3.832 5.449 3.832 5.877 0 2.232-3.118.085-8.312-5.724-5.628-6.294-5.961-6.497-10.5-6.423-6.33.103-11.615 2.105-11.979 4.54-.322 2.157 5.859 12.234 11.893 19.39 2.144 2.543 3.898 5.156 3.898 5.808 0 4.694-9.374-5.193-16.538-17.443-2.072-3.543-4.134-6.668-4.583-6.946-.667-.412-11.352 2.99-19.13 6.091-2.379.949-2.207 2.646.888 8.767 3.723 7.362 9.198 15.19 15.739 22.505 6.088 6.808 6.824 8.527 3.439 8.03-3.054-.447-14.75-15.185-21.525-27.12-3.06-5.393-6.06-9.622-6.677-9.4-.612.223-5.276 1.884-10.364 3.691-10.58 3.759-10.756 4.085-6.627 12.296 5.641 11.218 14.1 23.285 23.504 33.522 4.758 5.18 6.103 8.195 3.658 8.195-1.715 0-11.805-11.09-18.314-20.13-3.02-4.195-7.791-11.992-10.599-17.326-2.808-5.334-5.733-9.939-6.5-10.233-2.2-.844-12.216 3.675-14.455 6.522-1.396 1.775-1.836 3.372-1.411 5.123 1.67 6.879 17.255 29.31 29.28 42.13 5.415 5.777 6.984 8.09 6.57 9.669-.753 2.881 5.428 9.378 16.4 17.238 10.952 7.846 16.216 10.324 19.4 9.133 1.836-.687 3.98-.062 9.847 2.87 16.274 8.134 36.753 14.06 47.4 13.721 6.132-.196 7.111-.509 8.831-2.818m9.479-155.92c-4.171-3.281-3.158-9.101 1.92-11.03 4.248-1.615 8.33 1.368 8.358 6.107.034 5.743-5.727 8.504-10.278 4.925" fill="#323133"/><path d="m193.5 386.94c-30.04-3.093-61.61-14.793-85.5-31.682-12.189-8.618-33.602-30.02-42.28-42.26-8.102-11.428-19.612-34.11-23.609-46.523-18.389-57.11-8.08-117.8 27.921-164.38 46.21-59.793 123.62-83.43 196.44-59.983 12.414 3.997 35.09 15.507 46.523 23.609 12.263 8.694 33.649 30.09 42.25 42.28 8.413 11.918 18.667 32.26 23.24 46.11 21.848 66.19 3.608 138.33-46.928 185.61-20.09 18.796-45.41 33.32-71.06 40.769-19.993 5.804-47.546 8.458-67 6.455m9.402-11.192c1.594-4.209 2.406-18.674 1.135-20.21-.853-1.028-.882-1.964-.106-3.414 1.506-2.815 1.399-23.4-.131-24.93-.933-.933-.933-1.467 0-2.4 1.54-1.54 1.677-24.387.151-25.33-.711-.439-.722-1.041-.036-1.868.557-.671 1.141-6.144 1.299-12.161l.286-10.941 9-.668c16.06-1.193 29.492-7.1 40.544-17.836 14.575-14.158 21.646-34.35 18.943-54.09-.61-4.452-1.531-9.206-2.048-10.565-1.989-5.232-1.488-5.744 8.611-8.778 5.688-1.709 10.08-3.625 10.86-4.738.82-1.171 1.935-1.629 2.983-1.227 2.151.826 22.604-6.428 23.309-8.266.306-.797 1.283-1.153 2.29-.834 2.382.756 21.12-6.067 23.08-8.405 1.016-1.211 2.079-1.588 3.01-1.068 1.709.956 16.532-4.419 19.217-6.969 1.698-1.612 1.707-1.981.161-6.632-3.997-12.03-16.906-32.09-29.404-45.69-4.43-4.821-8.05-9.152-8.05-9.624 0-2.84-21.283-19.91-29.481-23.646-26.447-12.05-37.739-16.264-52.26-19.499-10.352-2.306-25.19-3.482-27.12-2.149-2.628 1.812-4.405 20.282-2.089 21.713.729.451.724 1.039-.016 1.931-1.705 2.054-2.6 23.15-1.061 25 .942 1.135.984 1.883.163 2.872-.908 1.094-1.569 13.257-1.423 26.16.012 1.1-.084 6.95-.215 13l-.238 11-7.746.713c-16.924 1.558-29.14 7.281-41.03 19.23-9.08 9.115-14.275 18.285-17.04 30.06-1.972 8.39-1.452 26.21.988 33.866 1.701 5.336 1.421 6.634-1.431 6.634-3.77 0-17.795 5.04-18.398 6.615-.385 1-1.233 1.354-2.292.948-2.48-.952-22.17 6.322-23.416 8.65-.771 1.44-1.352 1.646-2.336.83-1.56-1.295-21.294 5.233-23.25 7.69-.658.828-2.908 1.601-5 1.719-2.092.118-7.339 1.701-11.661 3.52l-7.858 3.306.557 3.432c1.457 8.979 16.745 34.37 28.822 47.877 3.486 3.897 8.943 10.07 12.13 13.723 8.486 9.726 25.991 22.48 33.375 24.316 1.559.388 6.434 2.448 10.834 4.578 16.192 7.84 41.52 14.519 55.775 14.708 6.148.081 6.854-.119 7.627-2.16m3.753-161.58c-3.481-3.847-.686-10.171 4.495-10.171 2.532 0 6.01 4.891 5.267 7.407-1.343 4.546-6.761 6.08-9.762 2.764" fill="#161414"/></g></svg>