<svg xmlns="http://www.w3.org/2000/svg" viewBox="0 0 100 100"><defs><linearGradient id="0" x1="1003.36" x2="1021.36" gradientUnits="userSpaceOnUse"><stop/><stop offset="1" stop-color="#fff"/></linearGradient></defs><g transform="translate(0-952.36)"><g fill="#fff" stroke="#000" stroke-linecap="square" stroke-width="2"><path d="m1 953.36h24.5v98h-24.5z"/><path d="m74.5 953.36h24.5v98h-24.5z"/><path d="m25.5 953.36h24.5v98h-24.5z"/><path d="m50 953.36h24.5v98h-24.5z"/></g><path d="m40 952.36h20v69.998h-20z"/><path d="m15.25 952.36h20v69.998h-20z"/><path d="m64.75 952.36h20v69.998h-20z"/><g fill="url(#0)"><path transform="matrix(0 1-1 0 0 0)" d="m1003.36-83.75h18v18h-18z"/><path transform="matrix(0 1-1 0 0 0)" d="m1003.36-34.25h18v18h-18z"/><path transform="matrix(0 1-1 0 0 0)" d="m1003.36-59h18v18h-18z"/></g></g></svg>