<svg xmlns="http://www.w3.org/2000/svg" viewBox="0 0 100 50.000001"><g transform="matrix(.75 0 0 .75 12.5-745.52)" fill="#ddd"><path d="m-10-1043.61l-11.908 6.875-11.908 6.875v-13.75-13.75l11.908 6.875zm-79.29 25.838l5.781-3.338 1.436-.83c-.28-.923-.432-1.903-.432-2.92v-5c0-5.54 4.46-10 10-10h38.684v-3.75-3.75h-41.18c-8.31 0-15 6.69-15 15v10c0 1.602.254 3.142.715 4.588" transform="scale(-1-1)"/><path d="m90-1011.11l-11.908 6.875-11.908 6.875v-13.75-13.75l11.908 6.875zm-65 3.75c-8.31 0-15-6.69-15-15v-10c0-1.602.254-3.142.715-4.588l5.781 3.338 1.436.83c-.28.923-.432 1.903-.432 2.92v5c0 5.54 4.46 10 10 10h38.684v3.75 3.75h-41.18" transform="scale(1-1)"/></g></svg>