<svg xmlns="http://www.w3.org/2000/svg" viewBox="0 0 100 50.000001"><g transform="translate(0-1002.36)" fill="#666"><path transform="translate(0 1002.36)" d="m35.33 26.768c0 0-4.472 6.493-7.922 7.922-2.281.945-7.406 0-7.406 0v5.621c3.244 0 6.735 1.241 9.732 0 4.167-1.726 6.379-6.379 9.568-9.568z"/><path d="m80 1014.86l-8.931-5.156-8.931-5.156v10.313 10.313l8.931-5.156zm-27.594-2.811c-4.167 1.726-6.379 6.379-9.568 9.568l3.975 3.975c0 0 4.472-6.493 7.922-7.922 2.28-.944 7.404 0 7.404 0v-5.621c-3.244 0-6.735-1.241-9.732 0"/><path d="m80 1039.86l-8.931-5.156-8.931-5.156v10.313 10.313l8.931-5.156zm-60-27.811v5.621c0 0 5.124-.944 7.404 0 10.889 4.51 14.11 20.49 25 25 2.997 1.242 6.489 0 9.732 0v-5.621c0 0-5.124.944-7.404 0-10.889-4.51-14.11-20.49-25-25-2.997-1.241-9.732 0-9.732 0"/></g></svg>