<svg xmlns="http://www.w3.org/2000/svg" viewBox="0 0 100 100"><g transform="translate(0-952.36)"><rect width="100" height="100" y="952.36" rx="25" fill="#fff"/><path d="m35.67 1030.66c-.177-.223-.506-.989-.732-1.703-.225-.714-1.716-4.29-3.312-7.947-1.596-3.657-5.9-13.656-9.565-22.22-6.52-15.235-8.493-19.609-9.271-20.546-.212-.256-.944-.817-1.626-1.247-1.119-.706-1.23-.9-1.14-1.983l.1-1.201 9.527-.005c7.399-.004 9.563.087 9.685.406.352.918-.279 2.01-1.586 2.737-.742.415-1.491.983-1.664 1.263-.23.372.181 1.766 1.531 5.19 3.38 8.57 14.514 34.36 14.834 34.36.173 0 1.78-2.999 3.57-6.665l3.256-6.665-3.981-9.635c-5.05-12.215-6.818-16-7.868-16.83-.461-.362-1.538-.849-2.394-1.08-.856-.232-1.739-.562-1.962-.735-.51-.395-.529-1.741-.029-2.051.207-.128 5.316-.246 11.353-.262l10.976-.029v1.015c0 1.273-.415 1.604-2.371 1.887-2.641.382-2.617.883.407 8.427 1.911 4.769 2.515 6.03 2.895 6.03.285 0 4.213-8.097 5.32-10.967.654-1.696.655-1.732.044-2.327-.341-.332-1.342-.811-2.225-1.064-1.834-.525-2.312-1.073-2-2.297l.216-.861 4.292.043c2.361.024 5.971.133 8.02.243 3.579.192 3.735.231 3.836.948.158 1.116-.396 1.562-2.88 2.317-3.594 1.092-4 1.608-8.614 10.897l-4.072 8.202 4.162 9.657c2.289 5.311 4.33 9.71 4.536 9.776.217.069.886-1.219 1.59-3.06.669-1.749 3.669-9.465 6.666-17.15 2.998-7.683 5.63-14.642 5.85-15.464.474-1.774.161-2.357-1.447-2.692-1.669-.347-2.492-1.03-2.492-2.065 0-.509.182-1.075.405-1.256.582-.474 11.776-.349 12.262.138.227.227.287.765.154 1.372-.167.761-.592 1.201-1.792 1.854-1.941 1.057-1.857.892-6.778 13.269-2.128 5.352-5.682 14.184-7.898 19.625-2.216 5.442-4.882 12.156-5.926 14.922-1.044 2.765-2.035 5.21-2.203 5.433-.187.248-1.09.406-2.329.406h-2.023l-1.727-4.136c-3.367-8.06-7.114-16.432-7.556-16.873-.58-.58-.674-.419-6.774 11.521l-4.847 9.488h-2.042c-1.246 0-2.168-.158-2.364-.406" fill="#0b0b0b"/></g></svg>